<svg xmlns="http://www.w3.org/2000/svg" xmlns:xlink="http://www.w3.org/1999/xlink" width="500" zoomAndPan="magnify" viewBox="0 0 375 374.999991" height="500" preserveAspectRatio="xMidYMid meet" version="1.0"><defs><g/><clipPath id="62c100381b"><path d="M 133.789062 170 L 241 170 L 241 200.9375 L 133.789062 200.9375 Z M 133.789062 170 " clip-rule="nonzero"/></clipPath><clipPath id="74bef8ce19"><path d="M 187 115.4375 L 188 115.4375 L 188 130 L 187 130 Z M 187 115.4375 " clip-rule="nonzero"/></clipPath><clipPath id="b1f50ebf98"><path d="M 141 200 L 170 200 L 170 200.9375 L 141 200.9375 Z M 141 200 " clip-rule="nonzero"/></clipPath><clipPath id="fc6b6fc80c"><path d="M 141 199 L 179 199 L 179 200.9375 L 141 200.9375 Z M 141 199 " clip-rule="nonzero"/></clipPath><clipPath id="000ad82c86"><path d="M 205 200 L 234 200 L 234 200.9375 L 205 200.9375 Z M 205 200 " clip-rule="nonzero"/></clipPath><clipPath id="38ca55730e"><path d="M 196 199 L 234 199 L 234 200.9375 L 196 200.9375 Z M 196 199 " clip-rule="nonzero"/></clipPath></defs><path fill="#b39659" d="M 185.511719 137.667969 C 185.457031 137.929688 186.261719 138.417969 186.722656 139.367188 C 187.214844 140.402344 187.097656 141.378906 187.414062 141.378906 C 187.730469 141.378906 187.617188 140.402344 188.105469 139.367188 C 188.566406 138.390625 189.375 137.929688 189.316406 137.667969 C 189.375 137.410156 188.566406 136.921875 188.105469 135.972656 C 187.617188 134.9375 187.730469 133.960938 187.414062 133.960938 C 187.097656 133.960938 187.214844 134.9375 186.722656 135.972656 C 186.261719 136.921875 185.457031 137.382812 185.511719 137.667969 Z M 185.511719 137.667969 " fill-opacity="1" fill-rule="nonzero"/><path fill="#b39659" d="M 207.007812 144.832031 C 206.980469 144.976562 207.414062 145.207031 207.644531 145.722656 C 207.902344 146.269531 207.84375 146.785156 208.015625 146.785156 C 208.191406 146.785156 208.132812 146.269531 208.390625 145.722656 C 208.621094 145.207031 209.054688 144.976562 209.027344 144.832031 C 209.054688 144.6875 208.621094 144.457031 208.390625 143.941406 C 208.132812 143.394531 208.191406 142.875 208.015625 142.875 C 207.84375 142.875 207.902344 143.394531 207.644531 143.941406 C 207.382812 144.429688 206.980469 144.6875 207.007812 144.832031 Z M 207.007812 144.832031 " fill-opacity="1" fill-rule="nonzero"/><path fill="#b39659" d="M 165.71875 144.832031 C 165.6875 144.976562 166.121094 145.207031 166.351562 145.722656 C 166.609375 146.269531 166.554688 146.785156 166.726562 146.785156 C 166.898438 146.785156 166.839844 146.269531 167.101562 145.722656 C 167.332031 145.207031 167.765625 144.976562 167.734375 144.832031 C 167.765625 144.6875 167.332031 144.457031 167.101562 143.941406 C 166.839844 143.394531 166.898438 142.875 166.726562 142.875 C 166.554688 142.875 166.609375 143.394531 166.351562 143.941406 C 166.121094 144.429688 165.6875 144.6875 165.71875 144.832031 Z M 165.71875 144.832031 " fill-opacity="1" fill-rule="nonzero"/><g clip-path="url(#62c100381b)"><path fill="#292e31" d="M 234.757812 170.601562 L 233.34375 170.601562 L 236.945312 188.375 L 236.945312 197.464844 C 216.429688 198.960938 212.597656 195.21875 204.761719 194.070312 C 196.894531 192.917969 194.214844 196.054688 194.214844 196.054688 C 191.851562 192.949219 187.445312 192.660156 187.445312 192.660156 C 187.445312 192.660156 183.035156 192.917969 180.671875 196.054688 C 180.671875 196.054688 177.992188 192.917969 170.125 194.070312 C 162.261719 195.21875 158.457031 198.960938 137.941406 197.464844 L 137.941406 188.375 L 141.515625 170.601562 L 140.101562 170.601562 L 133.878906 201.347656 L 179.894531 197.980469 L 179.894531 199.9375 L 187.414062 199.824219 L 194.9375 199.9375 L 194.9375 197.980469 L 240.953125 201.347656 Z M 234.757812 170.601562 " fill-opacity="1" fill-rule="nonzero"/></g><path fill="#b39659" d="M 195.886719 183.285156 C 197.039062 182.851562 198.769531 182.335938 200.898438 182.335938 C 203.03125 182.335938 205.480469 182.941406 207.960938 183.773438 C 210.464844 184.609375 213.058594 185.699219 215.625 186.765625 C 218.1875 187.828125 220.78125 188.863281 223.289062 189.582031 C 225.765625 190.300781 228.160156 190.707031 230.234375 190.792969 C 232.277344 190.878906 234.007812 190.675781 235.160156 190.417969 C 235.390625 190.359375 235.59375 190.300781 235.792969 190.273438 L 235.792969 188.808594 C 235.59375 188.863281 235.363281 188.894531 235.132812 188.949219 C 233.75 189.210938 231.761719 189.441406 229.367188 189.210938 C 227.007812 189.007812 224.269531 188.402344 221.503906 187.457031 C 218.707031 186.507812 215.855469 185.242188 212.972656 184.03125 C 210.121094 182.824219 207.210938 181.675781 204.414062 180.957031 C 203.003906 180.609375 201.621094 180.410156 200.324219 180.4375 C 199 180.464844 197.757812 180.695312 196.664062 181.011719 C 194.445312 181.644531 192.6875 182.535156 191.476562 183.140625 C 190.269531 183.746094 189.546875 184.089844 189.546875 184.0625 C 189.519531 184.03125 190.179688 183.601562 191.363281 182.941406 C 192.574219 182.277344 194.273438 181.328125 196.550781 180.609375 C 197.671875 180.265625 198.941406 179.976562 200.324219 179.917969 C 201.707031 179.863281 203.148438 180.035156 204.589844 180.378906 C 207.46875 181.042969 210.410156 182.164062 213.289062 183.371094 C 216.171875 184.550781 219.023438 185.785156 221.789062 186.707031 C 224.527344 187.628906 227.207031 188.175781 229.484375 188.375 C 231.789062 188.578125 233.691406 188.347656 234.988281 188.085938 C 235.277344 188.03125 235.535156 187.972656 235.738281 187.914062 L 230.695312 163.125 C 216.171875 162.921875 213.03125 153.804688 202.253906 154.726562 C 191.476562 155.644531 187.414062 162.230469 187.414062 162.230469 C 187.414062 162.230469 183.351562 155.644531 172.574219 154.726562 C 161.800781 153.804688 158.660156 162.921875 144.136719 163.125 L 139.152344 187.945312 C 139.382812 188 139.640625 188.058594 139.898438 188.117188 C 141.195312 188.375 143.128906 188.578125 145.402344 188.402344 C 147.707031 188.230469 150.359375 187.65625 153.097656 186.765625 C 155.863281 185.84375 158.714844 184.609375 161.597656 183.429688 C 164.480469 182.25 167.417969 181.128906 170.300781 180.4375 C 171.738281 180.121094 173.179688 179.917969 174.535156 179.976562 C 175.890625 180.035156 177.1875 180.292969 178.308594 180.667969 C 180.558594 181.386719 182.285156 182.335938 183.496094 182.996094 C 184.101562 183.34375 184.5625 183.601562 184.878906 183.800781 C 185.195312 184.003906 185.339844 184.117188 185.339844 184.117188 C 185.3125 184.148438 184.621094 183.800781 183.382812 183.226562 C 182.140625 182.652344 180.414062 181.761719 178.195312 181.097656 C 177.097656 180.78125 175.859375 180.550781 174.535156 180.523438 C 173.210938 180.496094 171.828125 180.695312 170.445312 181.042969 C 167.648438 181.730469 164.738281 182.882812 161.886719 184.089844 C 159.03125 185.296875 156.152344 186.5625 153.355469 187.511719 C 150.5625 188.460938 147.851562 189.066406 145.460938 189.265625 C 143.097656 189.46875 141.082031 189.265625 139.699219 189.007812 C 139.4375 188.949219 139.238281 188.894531 139.035156 188.863281 L 139.035156 190.332031 C 139.238281 190.390625 139.4375 190.417969 139.667969 190.476562 C 140.820312 190.734375 142.523438 190.933594 144.597656 190.847656 C 146.644531 190.761719 149.035156 190.359375 151.542969 189.640625 C 154.019531 188.921875 156.613281 187.886719 159.207031 186.824219 C 161.769531 185.757812 164.363281 184.664062 166.871094 183.832031 C 169.347656 182.996094 171.796875 182.394531 173.929688 182.394531 C 176.0625 182.394531 177.792969 182.910156 178.945312 183.3125 C 179.519531 183.515625 179.953125 183.714844 180.269531 183.859375 C 180.558594 184.003906 180.730469 184.089844 180.703125 184.117188 C 180.671875 184.175781 180.039062 183.917969 178.855469 183.542969 C 177.703125 183.199219 176.003906 182.738281 173.929688 182.824219 C 171.855469 182.882812 169.492188 183.515625 167.042969 184.378906 C 164.59375 185.242188 162.03125 186.363281 159.464844 187.457031 C 156.902344 188.546875 154.308594 189.613281 151.773438 190.390625 C 149.234375 191.164062 146.785156 191.566406 144.65625 191.683594 C 142.523438 191.796875 140.734375 191.566406 139.496094 191.308594 C 139.324219 191.28125 139.179688 191.25 139.035156 191.195312 L 139.035156 192.515625 C 139.179688 192.546875 139.324219 192.574219 139.46875 192.632812 C 140.503906 192.863281 142.03125 193.09375 143.875 193.0625 C 145.71875 193.035156 147.882812 192.777344 150.128906 192.199219 C 152.375 191.652344 154.738281 190.820312 157.042969 189.898438 C 159.351562 188.980469 161.65625 187.972656 163.84375 187.140625 C 166.035156 186.304688 168.136719 185.613281 169.984375 185.183594 C 171.828125 184.75 173.410156 184.636719 174.507812 184.695312 C 175.601562 184.835938 176.234375 184.925781 176.207031 184.953125 C 176.207031 185.011719 175.574219 184.980469 174.476562 184.925781 C 173.382812 184.925781 171.855469 185.097656 170.039062 185.585938 C 168.253906 186.074219 166.179688 186.792969 164.019531 187.683594 C 161.855469 188.578125 159.582031 189.582031 157.246094 190.5625 C 154.941406 191.511719 152.550781 192.402344 150.273438 192.976562 C 147.96875 193.582031 145.75 193.867188 143.847656 193.898438 C 141.945312 193.957031 140.332031 193.695312 139.238281 193.464844 C 139.152344 193.4375 139.066406 193.4375 138.976562 193.410156 L 138.976562 194.617188 C 139.09375 194.644531 139.207031 194.675781 139.324219 194.703125 C 140.304688 194.933594 141.714844 195.164062 143.445312 195.164062 C 145.171875 195.164062 147.191406 194.960938 149.324219 194.472656 C 151.453125 194.011719 153.671875 193.265625 155.863281 192.429688 C 158.054688 191.597656 160.214844 190.675781 162.261719 189.84375 C 164.304688 189.007812 166.265625 188.316406 167.964844 187.828125 C 169.664062 187.3125 171.136719 187.023438 172.171875 186.9375 C 173.210938 186.824219 173.816406 186.878906 173.816406 186.910156 C 173.816406 186.964844 173.238281 186.996094 172.230469 187.167969 C 171.222656 187.339844 169.808594 187.683594 168.136719 188.230469 C 166.46875 188.777344 164.566406 189.527344 162.519531 190.390625 C 160.503906 191.25 158.339844 192.199219 156.152344 193.09375 C 153.960938 193.984375 151.714844 194.761719 149.523438 195.25 C 147.363281 195.765625 145.257812 195.996094 143.445312 195.996094 C 141.628906 195.996094 140.128906 195.765625 139.121094 195.535156 C 139.066406 195.535156 139.035156 195.507812 138.976562 195.507812 L 138.976562 196.457031 C 138.976562 196.457031 152.492188 197.980469 164.074219 194.128906 C 175.660156 190.273438 180.644531 194.242188 180.644531 194.242188 C 180.644531 194.242188 183.46875 191.308594 187.414062 191.308594 C 191.363281 191.308594 194.128906 194.242188 194.128906 194.242188 C 194.128906 194.242188 199.113281 190.300781 210.695312 194.128906 C 222.28125 197.980469 235.792969 196.457031 235.792969 196.457031 L 235.792969 195.507812 C 235.738281 195.507812 235.707031 195.535156 235.652344 195.535156 C 234.613281 195.765625 233.113281 195.996094 231.328125 195.996094 C 229.542969 195.996094 227.4375 195.738281 225.277344 195.21875 C 223.085938 194.703125 220.839844 193.957031 218.648438 193.0625 C 216.460938 192.171875 214.300781 191.222656 212.28125 190.359375 C 210.265625 189.496094 208.335938 188.75 206.664062 188.203125 C 204.992188 187.65625 203.578125 187.3125 202.570312 187.140625 C 201.5625 186.964844 200.988281 186.9375 200.988281 186.878906 C 200.988281 186.851562 201.59375 186.792969 202.628906 186.878906 C 203.667969 186.964844 205.136719 187.253906 206.835938 187.773438 C 208.535156 188.261719 210.496094 188.980469 212.542969 189.785156 C 214.585938 190.617188 216.75 191.539062 218.9375 192.375 C 221.128906 193.207031 223.347656 193.957031 225.480469 194.414062 C 227.609375 194.902344 229.628906 195.105469 231.355469 195.105469 C 233.085938 195.105469 234.527344 194.875 235.476562 194.644531 C 235.59375 194.617188 235.707031 194.585938 235.824219 194.558594 L 235.824219 193.351562 C 235.738281 193.378906 235.652344 193.378906 235.5625 193.410156 C 234.46875 193.640625 232.882812 193.898438 230.953125 193.839844 C 229.050781 193.8125 226.832031 193.496094 224.527344 192.890625 C 222.222656 192.316406 219.859375 191.425781 217.554688 190.476562 C 215.25 189.527344 212.972656 188.492188 210.785156 187.597656 C 208.621094 186.707031 206.578125 185.988281 204.761719 185.5 C 202.976562 185.011719 201.417969 184.835938 200.324219 184.835938 C 199.230469 184.894531 198.625 184.925781 198.59375 184.867188 C 198.59375 184.808594 199.199219 184.722656 200.296875 184.578125 C 201.390625 184.492188 203.003906 184.609375 204.847656 185.039062 C 206.691406 185.46875 208.796875 186.160156 210.984375 186.996094 C 213.175781 187.828125 215.480469 188.835938 217.785156 189.757812 C 220.089844 190.675781 222.453125 191.511719 224.699219 192.058594 C 226.949219 192.632812 229.109375 192.890625 230.953125 192.917969 C 232.796875 192.949219 234.324219 192.71875 235.363281 192.488281 C 235.535156 192.460938 235.679688 192.429688 235.792969 192.375 L 235.792969 191.050781 C 235.652344 191.078125 235.507812 191.109375 235.332031 191.164062 C 234.125 191.425781 232.308594 191.625 230.175781 191.539062 C 228.042969 191.425781 225.59375 190.992188 223.058594 190.246094 C 220.523438 189.496094 217.929688 188.402344 215.363281 187.3125 C 212.800781 186.21875 210.234375 185.097656 207.785156 184.234375 C 205.335938 183.371094 202.976562 182.738281 200.898438 182.679688 C 198.824219 182.625 197.125 183.054688 195.972656 183.398438 C 194.820312 183.746094 194.15625 184.03125 194.15625 183.976562 C 194.101562 184.0625 194.734375 183.714844 195.886719 183.285156 Z M 195.886719 183.285156 " fill-opacity="1" fill-rule="nonzero"/><path fill="#292e31" d="M 187.414062 184.207031 C 187.242188 184.207031 187.242188 179.546875 187.242188 173.765625 C 187.242188 168.011719 187.242188 163.324219 187.414062 163.324219 C 187.589844 163.324219 187.589844 167.984375 187.589844 173.765625 C 187.558594 179.546875 187.558594 184.207031 187.414062 184.207031 Z M 187.414062 184.207031 " fill-opacity="1" fill-rule="nonzero"/><path fill="#292e31" d="M 194.476562 191.683594 C 194.417969 191.769531 193.753906 191.195312 192.542969 190.476562 C 191.9375 190.128906 191.191406 189.757812 190.296875 189.527344 C 189.402344 189.265625 188.394531 189.152344 187.328125 189.152344 C 185.195312 189.152344 183.324219 189.84375 182.171875 190.617188 C 180.988281 191.367188 180.5 192.113281 180.414062 192.058594 C 180.355469 192.027344 180.789062 191.195312 181.996094 190.390625 C 183.179688 189.554688 185.109375 188.835938 187.328125 188.835938 C 188.421875 188.835938 189.460938 188.980469 190.382812 189.238281 C 191.304688 189.496094 192.082031 189.871094 192.6875 190.246094 C 193.925781 190.992188 194.53125 191.625 194.476562 191.683594 Z M 194.476562 191.683594 " fill-opacity="1" fill-rule="nonzero"/><path fill="#292e31" d="M 183.265625 163.09375 C 183.238281 163.125 182.746094 162.863281 181.882812 162.433594 C 180.988281 161.972656 179.722656 161.339844 178.078125 160.679688 C 176.4375 160.046875 174.390625 159.441406 172.058594 159.355469 C 169.722656 159.269531 167.1875 159.875 164.710938 160.878906 C 162.203125 161.886719 159.953125 163.152344 157.824219 164.128906 C 155.691406 165.136719 153.671875 165.882812 151.945312 166.257812 C 150.1875 166.632812 148.71875 166.691406 147.738281 166.601562 C 147.246094 166.546875 146.84375 166.488281 146.585938 166.429688 C 146.324219 166.375 146.183594 166.34375 146.210938 166.316406 C 146.210938 166.171875 148.429688 166.804688 151.886719 165.96875 C 153.617188 165.566406 155.574219 164.820312 157.707031 163.8125 C 159.839844 162.808594 162.085938 161.570312 164.621094 160.535156 C 167.128906 159.5 169.722656 158.894531 172.113281 158.980469 C 174.507812 159.066406 176.582031 159.699219 178.222656 160.363281 C 179.867188 161.023438 181.164062 161.714844 182.027344 162.203125 C 182.832031 162.75 183.292969 163.035156 183.265625 163.09375 Z M 183.265625 163.09375 " fill-opacity="1" fill-rule="nonzero"/><path fill="#292e31" d="M 183.265625 166.488281 C 183.238281 166.515625 182.777344 166.257812 181.882812 165.796875 C 181.019531 165.335938 179.722656 164.675781 178.078125 164.074219 C 176.4375 163.46875 174.363281 162.921875 172.058594 162.835938 C 170.90625 162.808594 169.664062 162.894531 168.457031 163.179688 C 167.214844 163.441406 166.007812 163.957031 164.796875 164.503906 C 162.375 165.683594 160.011719 166.777344 157.824219 167.582031 C 155.605469 168.414062 153.558594 168.933594 151.773438 169.164062 C 150.015625 169.421875 148.542969 169.394531 147.566406 169.277344 C 147.074219 169.25 146.699219 169.164062 146.441406 169.105469 C 146.183594 169.046875 146.039062 169.019531 146.066406 168.992188 C 146.066406 168.933594 146.613281 169.019531 147.59375 169.078125 C 148.574219 169.132812 150.015625 169.132812 151.742188 168.875 C 153.5 168.617188 155.519531 168.097656 157.707031 167.265625 C 159.898438 166.460938 162.230469 165.367188 164.679688 164.1875 C 165.917969 163.613281 167.160156 163.09375 168.425781 162.835938 C 169.695312 162.546875 170.933594 162.433594 172.113281 162.492188 C 174.476562 162.578125 176.582031 163.152344 178.222656 163.785156 C 179.894531 164.417969 181.164062 165.109375 182.027344 165.597656 C 182.832031 166.144531 183.265625 166.460938 183.265625 166.488281 Z M 183.265625 166.488281 " fill-opacity="1" fill-rule="nonzero"/><path fill="#292e31" d="M 192.199219 163.09375 C 192.167969 163.066406 192.628906 162.75 193.496094 162.261719 C 194.359375 161.773438 195.628906 161.082031 197.296875 160.417969 C 198.941406 159.757812 201.015625 159.125 203.40625 159.039062 C 205.796875 158.925781 208.390625 159.558594 210.898438 160.59375 C 213.433594 161.628906 215.683594 162.863281 217.8125 163.871094 C 219.917969 164.878906 221.90625 165.625 223.636719 166.027344 C 227.09375 166.863281 229.3125 166.230469 229.3125 166.375 C 229.3125 166.402344 229.195312 166.429688 228.9375 166.488281 C 228.675781 166.546875 228.304688 166.601562 227.785156 166.660156 C 226.777344 166.746094 225.304688 166.71875 223.578125 166.316406 C 221.820312 165.914062 219.832031 165.195312 217.699219 164.1875 C 215.566406 163.179688 213.289062 161.945312 210.8125 160.9375 C 208.335938 159.929688 205.769531 159.328125 203.464844 159.414062 C 201.128906 159.5 199.085938 160.101562 197.441406 160.734375 C 195.800781 161.367188 194.53125 162.03125 193.640625 162.492188 C 192.71875 162.863281 192.226562 163.125 192.199219 163.09375 Z M 192.199219 163.09375 " fill-opacity="1" fill-rule="nonzero"/><path fill="#292e31" d="M 192.226562 166.488281 C 192.199219 166.460938 192.660156 166.144531 193.523438 165.625 C 194.386719 165.136719 195.65625 164.445312 197.328125 163.8125 C 199 163.179688 201.074219 162.605469 203.4375 162.519531 C 204.617188 162.492188 205.886719 162.578125 207.125 162.863281 C 208.390625 163.125 209.632812 163.640625 210.871094 164.214844 C 213.320312 165.394531 215.625 166.488281 217.84375 167.292969 C 220.03125 168.097656 222.078125 168.644531 223.808594 168.902344 C 225.535156 169.164062 226.976562 169.164062 227.957031 169.105469 C 228.9375 169.046875 229.484375 168.960938 229.484375 169.019531 C 229.484375 169.046875 229.367188 169.078125 229.109375 169.132812 C 228.851562 169.191406 228.476562 169.277344 227.984375 169.308594 C 227.007812 169.421875 225.535156 169.449219 223.777344 169.191406 C 222.019531 168.933594 219.945312 168.414062 217.726562 167.609375 C 215.507812 166.804688 213.175781 165.683594 210.753906 164.53125 C 209.542969 163.957031 208.304688 163.46875 207.09375 163.210938 C 205.855469 162.921875 204.644531 162.835938 203.492188 162.863281 C 201.160156 162.949219 199.113281 163.496094 197.472656 164.101562 C 195.828125 164.707031 194.53125 165.367188 193.667969 165.828125 C 192.71875 166.257812 192.257812 166.546875 192.226562 166.488281 Z M 192.226562 166.488281 " fill-opacity="1" fill-rule="nonzero"/><path fill="#b39659" d="M 187.414062 194.902344 C 183.667969 194.902344 182.515625 198.355469 182.515625 198.355469 L 192.3125 198.355469 C 192.3125 198.355469 191.132812 194.902344 187.414062 194.902344 Z M 187.414062 194.902344 " fill-opacity="1" fill-rule="nonzero"/><g clip-path="url(#74bef8ce19)"><path fill="#292e31" d="M 187.644531 129.933594 C 187.472656 129.933594 187.472656 126.683594 187.472656 122.683594 C 187.472656 118.6875 187.472656 115.4375 187.644531 115.4375 C 187.820312 115.4375 187.820312 118.6875 187.820312 122.683594 C 187.820312 126.683594 187.820312 129.933594 187.644531 129.933594 Z M 187.644531 129.933594 " fill-opacity="1" fill-rule="nonzero"/></g><path fill="#292e31" d="M 198.910156 121.417969 C 198.941406 121.417969 198.882812 121.878906 198.738281 122.683594 C 198.59375 123.492188 198.363281 124.667969 198.078125 126.109375 C 197.472656 129.011719 196.664062 133.011719 195.769531 137.410156 C 194.847656 141.8125 194.011719 145.808594 193.410156 148.714844 C 193.089844 150.152344 192.832031 151.332031 192.660156 152.136719 C 192.457031 152.941406 192.34375 153.375 192.3125 153.375 C 192.285156 153.375 192.34375 152.914062 192.488281 152.109375 C 192.628906 151.300781 192.859375 150.125 193.148438 148.683594 C 193.753906 145.78125 194.5625 141.8125 195.453125 137.382812 C 196.375 132.980469 197.210938 128.984375 197.816406 126.078125 C 198.132812 124.640625 198.394531 123.460938 198.566406 122.65625 C 198.738281 121.851562 198.882812 121.417969 198.910156 121.417969 Z M 198.910156 121.417969 " fill-opacity="1" fill-rule="nonzero"/><path fill="#292e31" d="M 213.839844 120.671875 C 213.980469 120.730469 211.417969 126.511719 208.246094 133.644531 C 205.078125 140.777344 202.515625 146.558594 202.371094 146.5 C 202.226562 146.441406 204.789062 140.660156 207.960938 133.527344 C 211.128906 126.394531 213.695312 120.585938 213.839844 120.671875 Z M 213.839844 120.671875 " fill-opacity="1" fill-rule="nonzero"/><path fill="#292e31" d="M 224.558594 134.851562 C 224.699219 134.9375 222.109375 138.300781 218.910156 142.445312 C 215.710938 146.585938 213.117188 149.949219 213.003906 149.835938 C 212.859375 149.75 215.453125 146.382812 218.648438 142.242188 C 221.820312 138.101562 224.414062 134.765625 224.558594 134.851562 Z M 224.558594 134.851562 " fill-opacity="1" fill-rule="nonzero"/><path fill="#292e31" d="M 229.628906 149.835938 C 229.6875 149.980469 227.667969 150.898438 225.160156 152.023438 C 222.65625 153.144531 220.636719 154.0625 220.582031 153.917969 C 220.523438 153.777344 222.539062 152.855469 225.046875 151.734375 C 227.523438 150.613281 229.542969 149.691406 229.628906 149.835938 Z M 229.628906 149.835938 " fill-opacity="1" fill-rule="nonzero"/><path fill="#292e31" d="M 176.351562 121.417969 C 176.378906 121.417969 176.523438 121.851562 176.695312 122.65625 C 176.898438 123.460938 177.128906 124.640625 177.445312 126.078125 C 178.050781 128.984375 178.886719 132.953125 179.808594 137.382812 C 180.703125 141.78125 181.535156 145.78125 182.113281 148.683594 C 182.402344 150.125 182.632812 151.300781 182.777344 152.109375 C 182.921875 152.914062 182.976562 153.375 182.949219 153.375 C 182.921875 153.375 182.777344 152.941406 182.601562 152.136719 C 182.402344 151.332031 182.171875 150.152344 181.855469 148.714844 C 181.25 145.808594 180.414062 141.839844 179.492188 137.410156 C 178.597656 133.011719 177.761719 129.011719 177.1875 126.109375 C 176.898438 124.667969 176.667969 123.492188 176.523438 122.683594 C 176.378906 121.878906 176.320312 121.449219 176.351562 121.417969 Z M 176.351562 121.417969 " fill-opacity="1" fill-rule="nonzero"/><path fill="#292e31" d="M 161.425781 120.671875 C 161.570312 120.613281 164.132812 126.394531 167.300781 133.527344 C 170.472656 140.660156 173.035156 146.441406 172.894531 146.5 C 172.75 146.558594 170.183594 140.777344 167.015625 133.644531 C 163.84375 126.511719 161.28125 120.730469 161.425781 120.671875 Z M 161.425781 120.671875 " fill-opacity="1" fill-rule="nonzero"/><path fill="#292e31" d="M 150.707031 134.851562 C 150.851562 134.765625 153.414062 138.101562 156.613281 142.242188 C 159.8125 146.382812 162.402344 149.75 162.261719 149.835938 C 162.117188 149.921875 159.550781 146.585938 156.351562 142.445312 C 153.183594 138.300781 150.589844 134.964844 150.707031 134.851562 Z M 150.707031 134.851562 " fill-opacity="1" fill-rule="nonzero"/><path fill="#292e31" d="M 145.632812 149.835938 C 145.691406 149.691406 147.738281 150.613281 150.214844 151.734375 C 152.722656 152.855469 154.738281 153.777344 154.683594 153.917969 C 154.625 154.0625 152.578125 153.144531 150.101562 152.023438 C 147.59375 150.898438 145.578125 149.980469 145.632812 149.835938 Z M 145.632812 149.835938 " fill-opacity="1" fill-rule="nonzero"/><g clip-path="url(#b1f50ebf98)"><path fill="#292e31" d="M 169.234375 200.082031 C 169.261719 200.082031 169.261719 200.226562 169.234375 200.484375 C 169.203125 200.742188 169.148438 201.117188 169.03125 201.605469 C 168.828125 202.554688 168.367188 203.933594 167.53125 205.488281 C 166.667969 207.042969 165.371094 208.738281 163.5 210.175781 C 161.65625 211.613281 159.234375 212.734375 156.554688 213.167969 C 153.875 213.597656 151.222656 213.367188 149.035156 212.5625 C 146.816406 211.757812 145.085938 210.433594 143.933594 209.113281 C 142.753906 207.761719 142.175781 206.410156 141.945312 205.429688 C 141.886719 205.199219 141.859375 204.96875 141.800781 204.796875 C 141.773438 204.597656 141.773438 204.453125 141.746094 204.308594 C 141.714844 204.050781 141.714844 203.90625 141.746094 203.90625 C 141.773438 203.90625 141.800781 204.050781 141.859375 204.28125 C 141.886719 204.425781 141.917969 204.566406 141.945312 204.742188 C 142.003906 204.914062 142.0625 205.144531 142.117188 205.375 C 142.378906 206.292969 142.984375 207.617188 144.136719 208.910156 C 145.289062 210.207031 146.988281 211.46875 149.148438 212.246094 C 151.3125 213.023438 153.902344 213.28125 156.496094 212.851562 C 159.121094 212.417969 161.480469 211.328125 163.296875 209.917969 C 165.113281 208.507812 166.410156 206.839844 167.273438 205.34375 C 168.972656 202.296875 169.089844 200.023438 169.234375 200.082031 Z M 169.234375 200.082031 " fill-opacity="1" fill-rule="nonzero"/></g><g clip-path="url(#fc6b6fc80c)"><path fill="#292e31" d="M 178.136719 199.5625 C 178.164062 199.5625 178.164062 199.765625 178.136719 200.140625 C 178.136719 200.511719 178.078125 201.058594 177.992188 201.75 C 177.820312 203.160156 177.417969 205.171875 176.550781 207.558594 C 175.660156 209.917969 174.304688 212.679688 172.085938 215.210938 C 169.894531 217.769531 166.8125 220.011719 163.125 221.277344 C 159.4375 222.515625 155.574219 222.628906 152.347656 221.59375 C 149.121094 220.585938 146.613281 218.660156 144.972656 216.734375 C 143.328125 214.777344 142.464844 212.851562 142.089844 211.5 C 142.003906 211.152344 141.917969 210.835938 141.859375 210.578125 C 141.800781 210.320312 141.773438 210.089844 141.746094 209.890625 C 141.6875 209.515625 141.6875 209.3125 141.714844 209.3125 C 141.746094 209.3125 141.773438 209.515625 141.859375 209.859375 C 141.886719 210.03125 141.945312 210.261719 142.003906 210.523438 C 142.089844 210.78125 142.175781 211.066406 142.261719 211.414062 C 142.667969 212.734375 143.558594 214.605469 145.171875 216.503906 C 146.816406 218.375 149.265625 220.242188 152.433594 221.21875 C 155.574219 222.226562 159.40625 222.140625 163.007812 220.902344 C 166.640625 219.667969 169.695312 217.453125 171.828125 214.949219 C 174.015625 212.449219 175.371094 209.746094 176.265625 207.414062 C 177.128906 205.058594 177.5625 203.074219 177.792969 201.664062 C 178.023438 200.339844 178.078125 199.5625 178.136719 199.5625 Z M 178.136719 199.5625 " fill-opacity="1" fill-rule="nonzero"/></g><g clip-path="url(#000ad82c86)"><path fill="#292e31" d="M 205.914062 200.082031 C 206.058594 200.050781 206.171875 202.296875 207.875 205.34375 C 208.738281 206.839844 210.035156 208.507812 211.851562 209.917969 C 213.664062 211.328125 216.027344 212.417969 218.648438 212.851562 C 221.273438 213.28125 223.867188 213.050781 225.996094 212.246094 C 228.160156 211.46875 229.859375 210.175781 231.011719 208.910156 C 232.164062 207.617188 232.738281 206.292969 233.027344 205.375 C 233.085938 205.144531 233.144531 204.941406 233.203125 204.742188 C 233.230469 204.566406 233.257812 204.394531 233.289062 204.28125 C 233.34375 204.023438 233.375 203.90625 233.402344 203.90625 C 233.433594 203.90625 233.433594 204.050781 233.402344 204.308594 C 233.402344 204.453125 233.375 204.597656 233.34375 204.796875 C 233.316406 205 233.257812 205.199219 233.203125 205.429688 C 232.972656 206.378906 232.394531 207.761719 231.214844 209.113281 C 230.058594 210.433594 228.304688 211.757812 226.113281 212.5625 C 223.894531 213.367188 221.273438 213.628906 218.59375 213.167969 C 215.914062 212.734375 213.519531 211.613281 211.648438 210.175781 C 209.804688 208.738281 208.476562 207.042969 207.613281 205.488281 C 206.75 203.933594 206.316406 202.554688 206.117188 201.605469 C 206 201.117188 205.941406 200.742188 205.914062 200.484375 C 205.886719 200.226562 205.886719 200.082031 205.914062 200.082031 Z M 205.914062 200.082031 " fill-opacity="1" fill-rule="nonzero"/></g><g clip-path="url(#38ca55730e)"><path fill="#292e31" d="M 196.980469 199.5625 C 197.039062 199.5625 197.097656 200.339844 197.328125 201.71875 C 197.558594 203.101562 197.960938 205.113281 198.855469 207.472656 C 199.746094 209.800781 201.128906 212.507812 203.292969 215.007812 C 205.453125 217.511719 208.476562 219.726562 212.109375 220.960938 C 215.738281 222.199219 219.542969 222.285156 222.683594 221.277344 C 225.855469 220.300781 228.304688 218.429688 229.945312 216.5625 C 231.585938 214.664062 232.453125 212.792969 232.855469 211.46875 C 232.941406 211.125 233.027344 210.835938 233.113281 210.578125 C 233.171875 210.320312 233.230469 210.089844 233.257812 209.917969 C 233.34375 209.542969 233.375 209.371094 233.402344 209.371094 C 233.433594 209.371094 233.402344 209.574219 233.375 209.945312 C 233.34375 210.117188 233.316406 210.347656 233.257812 210.636719 C 233.203125 210.894531 233.113281 211.210938 233.027344 211.558594 C 232.652344 212.910156 231.789062 214.835938 230.148438 216.792969 C 228.503906 218.71875 225.996094 220.617188 222.769531 221.652344 C 219.542969 222.6875 215.652344 222.574219 211.992188 221.335938 C 208.304688 220.070312 205.222656 217.828125 203.03125 215.265625 C 200.8125 212.734375 199.429688 209.976562 198.566406 207.617188 C 197.703125 205.230469 197.296875 203.214844 197.125 201.808594 C 197.039062 201.117188 196.980469 200.570312 196.980469 200.195312 C 196.953125 199.765625 196.953125 199.5625 196.980469 199.5625 Z M 196.980469 199.5625 " fill-opacity="1" fill-rule="nonzero"/></g><g fill="#ffffff" fill-opacity="1"><g transform="translate(64.522846, 234.996239)"><g><path d="M 12.734375 -9.609375 C 13.890625 -9.328125 14.78125 -8.835938 15.40625 -8.140625 C 16.03125 -7.453125 16.34375 -6.429688 16.34375 -5.078125 C 16.34375 -3.296875 15.785156 -2.003906 14.671875 -1.203125 C 13.554688 -0.398438 11.851562 0 9.5625 0 L 2.671875 0 L 2.671875 -19.125 L 9.3125 -19.125 C 11.59375 -19.125 13.269531 -18.703125 14.34375 -17.859375 C 15.414062 -17.015625 15.953125 -15.773438 15.953125 -14.140625 C 15.953125 -11.796875 14.878906 -10.285156 12.734375 -9.609375 Z M 5.96875 -16.171875 L 5.96875 -11 L 9.015625 -11 C 10.285156 -11 11.1875 -11.222656 11.71875 -11.671875 C 12.257812 -12.128906 12.53125 -12.78125 12.53125 -13.625 C 12.53125 -14.53125 12.21875 -15.179688 11.59375 -15.578125 C 10.976562 -15.972656 10.078125 -16.171875 8.890625 -16.171875 Z M 8.9375 -2.96875 C 10.289062 -2.96875 11.296875 -3.15625 11.953125 -3.53125 C 12.617188 -3.914062 12.953125 -4.570312 12.953125 -5.5 C 12.953125 -6.4375 12.632812 -7.09375 12 -7.46875 C 11.363281 -7.851562 10.382812 -8.046875 9.0625 -8.046875 L 5.96875 -8.046875 L 5.96875 -2.96875 Z M 8.9375 -2.96875 "/></g></g></g><g fill="#ffffff" fill-opacity="1"><g transform="translate(82.168754, 234.996239)"><g><path d="M 8.421875 -13.625 L 8.421875 -3.171875 L 12.234375 -3.171875 L 12.234375 0 L 1.0625 0 L 1.0625 -3.171875 L 5 -3.171875 L 5 -10.5 L 1.09375 -10.5 L 1.09375 -13.625 Z M 6.6875 -17.015625 C 6.03125 -17.015625 5.5 -17.210938 5.09375 -17.609375 C 4.6875 -18.003906 4.484375 -18.507812 4.484375 -19.125 C 4.484375 -19.75 4.6875 -20.257812 5.09375 -20.65625 C 5.5 -21.050781 6.03125 -21.25 6.6875 -21.25 C 7.332031 -21.25 7.859375 -21.050781 8.265625 -20.65625 C 8.679688 -20.257812 8.890625 -19.75 8.890625 -19.125 C 8.890625 -18.507812 8.679688 -18.003906 8.265625 -17.609375 C 7.859375 -17.210938 7.332031 -17.015625 6.6875 -17.015625 Z M 6.6875 -17.015625 "/></g></g></g><g fill="#ffffff" fill-opacity="1"><g transform="translate(94.821329, 234.996239)"><g><path d="M 10.375 -14.09375 C 12.289062 -14.09375 13.863281 -13.4375 15.09375 -12.125 C 16.320312 -10.8125 16.9375 -9.054688 16.9375 -6.859375 C 16.9375 -4.566406 16.34375 -2.769531 15.15625 -1.46875 C 13.96875 -0.175781 12.398438 0.46875 10.453125 0.46875 C 9.410156 0.46875 8.476562 0.28125 7.65625 -0.09375 C 6.84375 -0.476562 6.179688 -1.007812 5.671875 -1.6875 L 5.625 0 L 2.203125 0 L 2.203125 -24.21875 L 5.71875 -24.21875 L 5.71875 -11.9375 C 6.21875 -12.613281 6.863281 -13.140625 7.65625 -13.515625 C 8.445312 -13.898438 9.351562 -14.09375 10.375 -14.09375 Z M 9.65625 -2.703125 C 10.832031 -2.703125 11.765625 -3.082031 12.453125 -3.84375 C 13.148438 -4.613281 13.5 -5.601562 13.5 -6.8125 C 13.5 -8.050781 13.148438 -9.046875 12.453125 -9.796875 C 11.765625 -10.546875 10.832031 -10.921875 9.65625 -10.921875 C 8.46875 -10.921875 7.515625 -10.550781 6.796875 -9.8125 C 6.078125 -9.082031 5.71875 -8.082031 5.71875 -6.8125 C 5.71875 -5.570312 6.078125 -4.578125 6.796875 -3.828125 C 7.515625 -3.078125 8.46875 -2.703125 9.65625 -2.703125 Z M 9.65625 -2.703125 "/></g></g></g><g fill="#ffffff" fill-opacity="1"><g transform="translate(112.763444, 234.996239)"><g><path d="M 9.953125 0 L 2.203125 0 L 2.203125 -24.21875 L 5.71875 -24.21875 L 5.71875 -3.171875 L 9.953125 -3.171875 Z M 9.953125 0 "/></g></g></g><g fill="#ffffff" fill-opacity="1"><g transform="translate(123.130944, 234.996239)"><g><path d="M 8.421875 -13.625 L 8.421875 -3.171875 L 12.234375 -3.171875 L 12.234375 0 L 1.0625 0 L 1.0625 -3.171875 L 5 -3.171875 L 5 -10.5 L 1.09375 -10.5 L 1.09375 -13.625 Z M 6.6875 -17.015625 C 6.03125 -17.015625 5.5 -17.210938 5.09375 -17.609375 C 4.6875 -18.003906 4.484375 -18.507812 4.484375 -19.125 C 4.484375 -19.75 4.6875 -20.257812 5.09375 -20.65625 C 5.5 -21.050781 6.03125 -21.25 6.6875 -21.25 C 7.332031 -21.25 7.859375 -21.050781 8.265625 -20.65625 C 8.679688 -20.257812 8.890625 -19.75 8.890625 -19.125 C 8.890625 -18.507812 8.679688 -18.003906 8.265625 -17.609375 C 7.859375 -17.210938 7.332031 -17.015625 6.6875 -17.015625 Z M 6.6875 -17.015625 "/></g></g></g><g fill="#ffffff" fill-opacity="1"><g transform="translate(135.783519, 234.996239)"><g><path d="M 8.296875 0.46875 C 6.117188 0.46875 4.351562 -0.210938 3 -1.578125 C 1.644531 -2.953125 0.96875 -4.710938 0.96875 -6.859375 C 0.96875 -9.023438 1.640625 -10.769531 2.984375 -12.09375 C 4.328125 -13.425781 6.097656 -14.09375 8.296875 -14.09375 C 10.523438 -14.09375 12.304688 -13.425781 13.640625 -12.09375 C 14.984375 -10.769531 15.65625 -9.023438 15.65625 -6.859375 C 15.65625 -4.679688 14.984375 -2.914062 13.640625 -1.5625 C 12.304688 -0.207031 10.523438 0.46875 8.296875 0.46875 Z M 8.296875 -2.703125 C 9.503906 -2.703125 10.460938 -3.082031 11.171875 -3.84375 C 11.878906 -4.613281 12.234375 -5.617188 12.234375 -6.859375 C 12.234375 -8.066406 11.878906 -9.046875 11.171875 -9.796875 C 10.460938 -10.546875 9.503906 -10.921875 8.296875 -10.921875 C 7.078125 -10.921875 6.125 -10.546875 5.4375 -9.796875 C 4.75 -9.046875 4.40625 -8.066406 4.40625 -6.859375 C 4.40625 -5.617188 4.75 -4.613281 5.4375 -3.84375 C 6.125 -3.082031 7.078125 -2.703125 8.296875 -2.703125 Z M 8.296875 -2.703125 "/></g></g></g><g fill="#ffffff" fill-opacity="1"><g transform="translate(152.413832, 234.996239)"><g><path d="M 6.515625 -10.5 L 6.515625 -3.171875 L 10.75 -3.171875 L 10.75 0 L 3 0 L 3 -10.5 L 0.546875 -10.5 L 0.546875 -13.625 L 3 -13.625 L 3 -19.125 L 6.515625 -19.125 L 6.515625 -13.625 L 10.453125 -13.625 L 10.453125 -10.5 Z M 6.515625 -10.5 "/></g></g></g><g fill="#ffffff" fill-opacity="1"><g transform="translate(163.669977, 234.996239)"><g><path d="M 14.140625 -7.75 C 14.140625 -6.875 14.082031 -6.097656 13.96875 -5.421875 L 4.359375 -5.421875 C 4.953125 -3.390625 6.703125 -2.375 9.609375 -2.375 C 10.710938 -2.375 11.742188 -2.5 12.703125 -2.75 L 13.125 0 C 12.101562 0.3125 10.816406 0.46875 9.265625 0.46875 C 6.617188 0.46875 4.570312 -0.175781 3.125 -1.46875 C 1.6875 -2.769531 0.96875 -4.632812 0.96875 -7.0625 C 0.96875 -9.207031 1.5625 -10.914062 2.75 -12.1875 C 3.9375 -13.457031 5.601562 -14.09375 7.75 -14.09375 C 9.78125 -14.09375 11.351562 -13.5 12.46875 -12.3125 C 13.582031 -11.132812 14.140625 -9.613281 14.140625 -7.75 Z M 7.75 -11.265625 C 6.757812 -11.265625 5.957031 -11 5.34375 -10.46875 C 4.738281 -9.945312 4.367188 -9.195312 4.234375 -8.21875 L 11.125 -8.21875 C 11.070312 -9.175781 10.75 -9.921875 10.15625 -10.453125 C 9.5625 -10.992188 8.757812 -11.265625 7.75 -11.265625 Z M 7.75 -11.265625 "/></g></g></g><g fill="#ffffff" fill-opacity="1"><g transform="translate(178.692269, 234.996239)"><g><path d="M 8.078125 0.46875 C 5.847656 0.46875 4.101562 -0.191406 2.84375 -1.515625 C 1.59375 -2.847656 0.96875 -4.628906 0.96875 -6.859375 C 0.96875 -9.085938 1.585938 -10.847656 2.828125 -12.140625 C 4.078125 -13.441406 5.816406 -14.09375 8.046875 -14.09375 C 9.203125 -14.09375 10.21875 -13.9375 11.09375 -13.625 L 10.625 -10.671875 C 10.03125 -10.867188 9.367188 -10.96875 8.640625 -10.96875 C 7.285156 -10.96875 6.238281 -10.597656 5.5 -9.859375 C 4.769531 -9.128906 4.40625 -8.128906 4.40625 -6.859375 C 4.40625 -5.554688 4.765625 -4.53125 5.484375 -3.78125 C 6.203125 -3.039062 7.222656 -2.671875 8.546875 -2.671875 C 9.304688 -2.671875 10 -2.78125 10.625 -3 L 11.125 0 C 10.28125 0.3125 9.265625 0.46875 8.078125 0.46875 Z M 8.078125 0.46875 "/></g></g></g><g fill="#ffffff" fill-opacity="1"><g transform="translate(190.837047, 234.996239)"><g><path d="M 12.53125 0 L 9.265625 0 L 9.234375 -0.84375 C 8.359375 0.03125 7.195312 0.46875 5.75 0.46875 C 4.3125 0.46875 3.15625 0.0507812 2.28125 -0.78125 C 1.40625 -1.613281 0.96875 -2.78125 0.96875 -4.28125 C 0.96875 -5.769531 1.40625 -6.921875 2.28125 -7.734375 C 3.15625 -8.554688 4.3125 -8.96875 5.75 -8.96875 C 7.25 -8.96875 8.394531 -8.546875 9.1875 -7.703125 L 9.1875 -10.703125 L 2.75 -10.703125 L 2.75 -13.625 L 12.53125 -13.625 Z M 6.640625 -2.078125 C 7.398438 -2.078125 8.003906 -2.273438 8.453125 -2.671875 C 8.910156 -3.066406 9.140625 -3.601562 9.140625 -4.28125 C 9.140625 -4.957031 8.910156 -5.488281 8.453125 -5.875 C 8.003906 -6.269531 7.398438 -6.46875 6.640625 -6.46875 C 5.941406 -6.46875 5.378906 -6.269531 4.953125 -5.875 C 4.523438 -5.488281 4.3125 -4.957031 4.3125 -4.28125 C 4.3125 -3.601562 4.523438 -3.066406 4.953125 -2.671875 C 5.378906 -2.273438 5.941406 -2.078125 6.640625 -2.078125 Z M 6.640625 -2.078125 "/></g></g></g><g fill="#ffffff" fill-opacity="1"><g transform="translate(205.563121, 234.996239)"><g/></g></g><g fill="#ffffff" fill-opacity="1"><g transform="translate(212.926157, 234.996239)"><g><path d="M 8.34375 -19.125 C 11.863281 -19.125 14.476562 -18.304688 16.1875 -16.671875 C 17.894531 -15.035156 18.75 -12.707031 18.75 -9.6875 C 18.75 -6.582031 17.863281 -4.191406 16.09375 -2.515625 C 14.332031 -0.835938 11.707031 0 8.21875 0 L 2.671875 0 L 2.671875 -19.125 Z M 8.421875 -3.34375 C 10.796875 -3.34375 12.523438 -3.878906 13.609375 -4.953125 C 14.691406 -6.023438 15.234375 -7.601562 15.234375 -9.6875 C 15.234375 -13.75 12.960938 -15.78125 8.421875 -15.78125 L 6.1875 -15.78125 L 6.1875 -3.34375 Z M 8.421875 -3.34375 "/></g></g></g><g fill="#ffffff" fill-opacity="1"><g transform="translate(232.98409, 234.996239)"><g><path d="M 8.421875 -13.625 L 8.421875 -3.171875 L 12.234375 -3.171875 L 12.234375 0 L 1.0625 0 L 1.0625 -3.171875 L 5 -3.171875 L 5 -10.5 L 1.09375 -10.5 L 1.09375 -13.625 Z M 6.6875 -17.015625 C 6.03125 -17.015625 5.5 -17.210938 5.09375 -17.609375 C 4.6875 -18.003906 4.484375 -18.507812 4.484375 -19.125 C 4.484375 -19.75 4.6875 -20.257812 5.09375 -20.65625 C 5.5 -21.050781 6.03125 -21.25 6.6875 -21.25 C 7.332031 -21.25 7.859375 -21.050781 8.265625 -20.65625 C 8.679688 -20.257812 8.890625 -19.75 8.890625 -19.125 C 8.890625 -18.507812 8.679688 -18.003906 8.265625 -17.609375 C 7.859375 -17.210938 7.332031 -17.015625 6.6875 -17.015625 Z M 6.6875 -17.015625 "/></g></g></g><g fill="#ffffff" fill-opacity="1"><g transform="translate(245.636666, 234.996239)"><g><path d="M 8.375 0.421875 C 10.582031 0.421875 12.242188 0.867188 13.359375 1.765625 C 14.472656 2.671875 15.03125 3.972656 15.03125 5.671875 C 15.03125 7.585938 14.378906 8.960938 13.078125 9.796875 C 11.773438 10.628906 9.925781 11.046875 7.53125 11.046875 C 5.46875 11.046875 3.617188 10.832031 1.984375 10.40625 L 2.703125 7.28125 C 4.398438 7.707031 6.140625 7.921875 7.921875 7.921875 C 9.160156 7.921875 10.078125 7.75 10.671875 7.40625 C 11.265625 7.070312 11.5625 6.507812 11.5625 5.71875 C 11.5625 4.925781 11.265625 4.34375 10.671875 3.96875 C 10.078125 3.601562 9.128906 3.421875 7.828125 3.421875 L 3.296875 3.421875 L 1.015625 0.25 L 4.28125 -3.421875 C 3.375 -3.898438 2.671875 -4.5625 2.171875 -5.40625 C 1.679688 -6.257812 1.4375 -7.238281 1.4375 -8.34375 C 1.4375 -10.09375 2.015625 -11.488281 3.171875 -12.53125 C 4.328125 -13.570312 5.878906 -14.09375 7.828125 -14.09375 C 9.046875 -14.09375 10.101562 -13.878906 11 -13.453125 L 14.390625 -16.796875 L 16.640625 -14.515625 L 13.421875 -11.296875 C 13.929688 -10.453125 14.1875 -9.46875 14.1875 -8.34375 C 14.1875 -6.59375 13.617188 -5.203125 12.484375 -4.171875 C 11.359375 -3.140625 9.804688 -2.625 7.828125 -2.625 L 7.703125 -2.625 L 4.875 0.421875 Z M 7.828125 -11.21875 C 6.835938 -11.21875 6.050781 -10.960938 5.46875 -10.453125 C 4.894531 -9.941406 4.609375 -9.238281 4.609375 -8.34375 C 4.609375 -7.46875 4.894531 -6.757812 5.46875 -6.21875 C 6.050781 -5.6875 6.835938 -5.421875 7.828125 -5.421875 C 8.816406 -5.421875 9.585938 -5.679688 10.140625 -6.203125 C 10.691406 -6.722656 10.96875 -7.4375 10.96875 -8.34375 C 10.96875 -9.238281 10.691406 -9.941406 10.140625 -10.453125 C 9.585938 -10.960938 8.816406 -11.21875 7.828125 -11.21875 Z M 7.828125 -11.21875 "/></g></g></g><g fill="#ffffff" fill-opacity="1"><g transform="translate(261.462974, 234.996239)"><g><path d="M 8.421875 -13.625 L 8.421875 -3.171875 L 12.234375 -3.171875 L 12.234375 0 L 1.0625 0 L 1.0625 -3.171875 L 5 -3.171875 L 5 -10.5 L 1.09375 -10.5 L 1.09375 -13.625 Z M 6.6875 -17.015625 C 6.03125 -17.015625 5.5 -17.210938 5.09375 -17.609375 C 4.6875 -18.003906 4.484375 -18.507812 4.484375 -19.125 C 4.484375 -19.75 4.6875 -20.257812 5.09375 -20.65625 C 5.5 -21.050781 6.03125 -21.25 6.6875 -21.25 C 7.332031 -21.25 7.859375 -21.050781 8.265625 -20.65625 C 8.679688 -20.257812 8.890625 -19.75 8.890625 -19.125 C 8.890625 -18.507812 8.679688 -18.003906 8.265625 -17.609375 C 7.859375 -17.210938 7.332031 -17.015625 6.6875 -17.015625 Z M 6.6875 -17.015625 "/></g></g></g><g fill="#ffffff" fill-opacity="1"><g transform="translate(274.115561, 234.996239)"><g><path d="M 6.515625 -10.5 L 6.515625 -3.171875 L 10.75 -3.171875 L 10.75 0 L 3 0 L 3 -10.5 L 0.546875 -10.5 L 0.546875 -13.625 L 3 -13.625 L 3 -19.125 L 6.515625 -19.125 L 6.515625 -13.625 L 10.453125 -13.625 L 10.453125 -10.5 Z M 6.515625 -10.5 "/></g></g></g><g fill="#ffffff" fill-opacity="1"><g transform="translate(285.371694, 234.996239)"><g><path d="M 12.53125 0 L 9.265625 0 L 9.234375 -0.84375 C 8.359375 0.03125 7.195312 0.46875 5.75 0.46875 C 4.3125 0.46875 3.15625 0.0507812 2.28125 -0.78125 C 1.40625 -1.613281 0.96875 -2.78125 0.96875 -4.28125 C 0.96875 -5.769531 1.40625 -6.921875 2.28125 -7.734375 C 3.15625 -8.554688 4.3125 -8.96875 5.75 -8.96875 C 7.25 -8.96875 8.394531 -8.546875 9.1875 -7.703125 L 9.1875 -10.703125 L 2.75 -10.703125 L 2.75 -13.625 L 12.53125 -13.625 Z M 6.640625 -2.078125 C 7.398438 -2.078125 8.003906 -2.273438 8.453125 -2.671875 C 8.910156 -3.066406 9.140625 -3.601562 9.140625 -4.28125 C 9.140625 -4.957031 8.910156 -5.488281 8.453125 -5.875 C 8.003906 -6.269531 7.398438 -6.46875 6.640625 -6.46875 C 5.941406 -6.46875 5.378906 -6.269531 4.953125 -5.875 C 4.523438 -5.488281 4.3125 -4.957031 4.3125 -4.28125 C 4.3125 -3.601562 4.523438 -3.066406 4.953125 -2.671875 C 5.378906 -2.273438 5.941406 -2.078125 6.640625 -2.078125 Z M 6.640625 -2.078125 "/></g></g></g><g fill="#ffffff" fill-opacity="1"><g transform="translate(300.097768, 234.996239)"><g><path d="M 9.953125 0 L 2.203125 0 L 2.203125 -24.21875 L 5.71875 -24.21875 L 5.71875 -3.171875 L 9.953125 -3.171875 Z M 9.953125 0 "/></g></g></g></svg>